<svg class="diagram-root" style="background: #f5f6f6" xmlns="http://www.w3.org/2000/svg" xmlns:xlink="http://www.w3.org/1999/xlink"><style>.diagram-root { font-family: "Helvetica Neue", sans-serif; font-size: 12px; } .t { overflow: visible; } .t-bg { y: 40; fill: #fff;   } .th { fill: #005aa0;   } .tht { fill: #fff; font-size: 14px;  } .tf { fill: #323c46; overflow: visible; } .tf.pk { fill: #005aa0; font-weight: bold; } .tf.fk { font-weight: bold; } .ty { fill: #adb1b5; font-weight: normal; text-anchor: end; } .r { fill: transparent; stroke: #c3c3c3; stroke-width: 1; } .l { stroke: 1; } .i { fill: #c2c7ce; stroke: #c2c7ce; } .i.ix { fill: #afb3b6; stroke: #000; } .fa { fill: transparent; overflow: visible; } .fa .bg.hover { fill: #f7f7f7; } .c { cy: 12; r: 4; stroke: #d2d2dc; fill: #d2d2dc; } .hr { fill: transparent; stroke: #323c46; stroke-opacity: 0.035; stroke-width: 13; } .dc { stroke: #fa5a3c; fill: #fa5a3c; } .x { stroke: white; stroke-width: 1; } .hl .th { fill: #1b9bff; } .hl .tht {  } .fhl .bg { fill: #e7f4ff; } .fhls .bg {  } .r.hl { stroke: #1b9bff; } .dim { opacity: 0.25; }</style><g class="drawing-wrapper" transform="translate(-68, -8) scale(1,1)"><g class="rs"><path d="M 90 245 m -1, 0 a 1,1 0 1,0 2,0 a 1,1 0 1,0 -2,0 M 90 245 m -0.5, 0 a 0.5,0.5 0 1,0 1,0 a 0.5,0.5 0 1,0 -1,0  M90 245 L90 245 78 245 M 90 251 m -1, 0 a 1,1 0 1,0 2,0 a 1,1 0 1,0 -2,0 M 90 251 m -0.5, 0 a 0.5,0.5 0 1,0 1,0 a 0.5,0.5 0 1,0 -1,0  M90 251 L90 251 83 245 90 239 M 90 239 m -1, 0 a 1,1 0 1,0 2,0 a 1,1 0 1,0 -2,0 M 90 239 m -0.5, 0 a 0.5,0.5 0 1,0 1,0 a 0.5,0.5 0 1,0 -1,0  M78 245 C 28 245, 25.6 498, 82 498 M 94 498 m -1, 0 a 1,1 0 1,0 2,0 a 1,1 0 1,0 -2,0 M 94 498 m -0.5, 0 a 0.5,0.5 0 1,0 1,0 a 0.5,0.5 0 1,0 -1,0  M94 498 L94 498 82 498 M88 504 L88 504 88 492" id="h50952184" class="r"></path><path d="M 394 291 m -1, 0 a 1,1 0 1,0 2,0 a 1,1 0 1,0 -2,0 M 394 291 m -0.5, 0 a 0.5,0.5 0 1,0 1,0 a 0.5,0.5 0 1,0 -1,0  M394 291 L394 291 382 291 M 394 297 m -1, 0 a 1,1 0 1,0 2,0 a 1,1 0 1,0 -2,0 M 394 297 m -0.5, 0 a 0.5,0.5 0 1,0 1,0 a 0.5,0.5 0 1,0 -1,0  M394 297 L394 297 387 291 394 285 M 394 285 m -1, 0 a 1,1 0 1,0 2,0 a 1,1 0 1,0 -2,0 M 394 285 m -0.5, 0 a 0.5,0.5 0 1,0 1,0 a 0.5,0.5 0 1,0 -1,0  M382 291 Q 347.51 291, 313.02 193 T 244.05 95 M 232.05 95 m -1, 0 a 1,1 0 1,0 2,0 a 1,1 0 1,0 -2,0 M 232.05 95 m -0.5, 0 a 0.5,0.5 0 1,0 1,0 a 0.5,0.5 0 1,0 -1,0  M232.05 95 L232.05 95 244.05 95 M238.05 101 L238.05 101 238.05 89" id="h4123789742" class="r"></path><path d="M 394 366 m -1, 0 a 1,1 0 1,0 2,0 a 1,1 0 1,0 -2,0 M 394 366 m -0.5, 0 a 0.5,0.5 0 1,0 1,0 a 0.5,0.5 0 1,0 -1,0  M394 366 L394 366 382 366 M 394 372 m -1, 0 a 1,1 0 1,0 2,0 a 1,1 0 1,0 -2,0 M 394 372 m -0.5, 0 a 0.5,0.5 0 1,0 1,0 a 0.5,0.5 0 1,0 -1,0  M394 372 L394 372 387 366 394 360 M 394 360 m -1, 0 a 1,1 0 1,0 2,0 a 1,1 0 1,0 -2,0 M 394 360 m -0.5, 0 a 0.5,0.5 0 1,0 1,0 a 0.5,0.5 0 1,0 -1,0  M382 366 Q 340.51 366, 299.02 432 T 216.03 498 M 204.03 498 m -1, 0 a 1,1 0 1,0 2,0 a 1,1 0 1,0 -2,0 M 204.03 498 m -0.5, 0 a 0.5,0.5 0 1,0 1,0 a 0.5,0.5 0 1,0 -1,0  M204.03 498 L204.03 498 216.03 498 M210.03 504 L210.03 504 210.03 492" id="h3559049542" class="r"></path><path d="M 521.37 391 m -1, 0 a 1,1 0 1,0 2,0 a 1,1 0 1,0 -2,0 M 521.37 391 m -0.5, 0 a 0.5,0.5 0 1,0 1,0 a 0.5,0.5 0 1,0 -1,0  M521.37 391 L521.37 391 533.37 391 M 521.37 397 m -1, 0 a 1,1 0 1,0 2,0 a 1,1 0 1,0 -2,0 M 521.37 397 m -0.5, 0 a 0.5,0.5 0 1,0 1,0 a 0.5,0.5 0 1,0 -1,0  M521.37 397 L521.37 397 528.37 391 521.37 385 M 521.37 385 m -1, 0 a 1,1 0 1,0 2,0 a 1,1 0 1,0 -2,0 M 521.37 385 m -0.5, 0 a 0.5,0.5 0 1,0 1,0 a 0.5,0.5 0 1,0 -1,0  M533.37 391 Q 566.78 391, 600.18 342.5 T 667 294 M 679 294 m -1, 0 a 1,1 0 1,0 2,0 a 1,1 0 1,0 -2,0 M 679 294 m -0.5, 0 a 0.5,0.5 0 1,0 1,0 a 0.5,0.5 0 1,0 -1,0  M679 294 L679 294 667 294 M673 300 L673 300 673 288" id="h3089693579" class="r"></path></g><g class="hrs"></g><g class="ts"><svg width="127.37" height="250" x="394" y="159" id="h1611266215" class="t"><rect height="40" width="127.37" class="th"></rect><text x="13" y="25" class="tht">Posts</text><rect height="210" width="127.37" class="t-bg"></rect><text x="13" y="61" class="tf pk">id<tspan x="114.37" class="ty">int</tspan></text><path d="M7,14A2,2 0 0,1 5,12A2,2 0 0,1 7,10A2,2 0 0,1 9,12A2,2 0 0,1 7,14M12.65,10C11.83,7.67 9.61,6 7, 6A6, 6 0 0, 0 1, 12A6, 6 0 0, 0 7, 18C9.61, 18 11.83, 16.33 12.65, 14H17V18H21V14H23V10H12.65Z" class="i pk" transform="translate(81.696171875, 48) scale(0.65)"></path><text x="13" y="86" class="tf">title<tspan x="114.37" class="ty">TEXT</tspan></text><text x="13" y="111" class="tf">text<tspan x="114.37" class="ty">TEXT</tspan></text><text x="13" y="136" class="tf fk">user_id<tspan x="114.37" class="ty">INT</tspan></text><text x="13" y="161" class="tf">city<tspan x="114.37" class="ty">TEXT</tspan></text><text x="13" y="186" class="tf">state_<tspan x="114.37" class="ty">TEXT,</tspan></text><text x="13" y="211" class="tf fk">region_id<tspan x="114.37" class="ty">INT</tspan></text><text x="13" y="236" class="tf fk">category_id<tspan x="114.37" class="ty">INT</tspan></text></svg><svg width="142.05" height="225" x="90" y="38" id="h3889921393" class="t"><rect height="40" width="142.05" class="th"></rect><text x="13" y="25" class="tht">Users</text><rect height="185" width="142.05" class="t-bg"></rect><text x="13" y="61" class="tf pk">id<tspan x="129.05" class="ty">int</tspan></text><path d="M7,14A2,2 0 0,1 5,12A2,2 0 0,1 7,10A2,2 0 0,1 9,12A2,2 0 0,1 7,14M12.65,10C11.83,7.67 9.61,6 7, 6A6, 6 0 0, 0 1, 12A6, 6 0 0, 0 7, 18C9.61, 18 11.83, 16.33 12.65, 14H17V18H21V14H23V10H12.65Z" class="i pk" transform="translate(96.37617187500001, 48) scale(0.65)"></path><text x="13" y="86" class="tf">username<tspan x="129.05" class="ty">TEXT</tspan></text><text x="13" y="111" class="tf">first_name<tspan x="129.05" class="ty">TEXT</tspan></text><text x="13" y="136" class="tf">last_name<tspan x="129.05" class="ty">TEXT</tspan></text><text x="13" y="161" class="tf">city<tspan x="129.05" class="ty">TEXT</tspan></text><text x="13" y="186" class="tf">state_<tspan x="129.05" class="ty">TEXT</tspan></text><text x="13" y="211" class="tf fk">pref_region_id<tspan x="129.05" class="ty">INT</tspan></text></svg><svg width="110.03" height="100" x="94" y="441" id="h41485699" class="t"><rect height="40" width="110.03" class="th"></rect><text x="13" y="25" class="tht">Regions</text><rect height="60" width="110.03" class="t-bg"></rect><text x="13" y="61" class="tf pk">id<tspan x="97.03" class="ty">int</tspan></text><path d="M7,14A2,2 0 0,1 5,12A2,2 0 0,1 7,10A2,2 0 0,1 9,12A2,2 0 0,1 7,14M12.65,10C11.83,7.67 9.61,6 7, 6A6, 6 0 0, 0 1, 12A6, 6 0 0, 0 7, 18C9.61, 18 11.83, 16.33 12.65, 14H17V18H21V14H23V10H12.65Z" class="i pk" transform="translate(64.356171875, 48) scale(0.65)"></path><text x="13" y="86" class="tf">region<tspan x="97.03" class="ty">TEXT</tspan></text></svg><svg width="122.69" height="100" x="679" y="237" id="h1234641711" class="t"><rect height="40" width="122.69" class="th"></rect><text x="13" y="25" class="tht">Categories</text><rect height="60" width="122.69" class="t-bg"></rect><text x="13" y="61" class="tf pk">id<tspan x="109.69" class="ty">SERIAL</tspan></text><path d="M7,14A2,2 0 0,1 5,12A2,2 0 0,1 7,10A2,2 0 0,1 9,12A2,2 0 0,1 7,14M12.65,10C11.83,7.67 9.61,6 7, 6A6, 6 0 0, 0 1, 12A6, 6 0 0, 0 7, 18C9.61, 18 11.83, 16.33 12.65, 14H17V18H21V14H23V10H12.65Z" class="i pk" transform="translate(47.004453125, 48) scale(0.65)"></path><text x="13" y="86" class="tf">category<tspan x="109.69" class="ty">TEXT</tspan></text></svg></g></g><text class="qdbd-link" x="10" y="20">www.quickdatabasediagrams.com</text></svg>