<svg class="diagram-root" style="background: #f5f6f6" xmlns="http://www.w3.org/2000/svg" xmlns:xlink="http://www.w3.org/1999/xlink"><style>.diagram-root { font-family: "Helvetica Neue", sans-serif; font-size: 12px; } .t { overflow: visible; } .t-bg { y: 40; fill: #fff;   } .th { fill: #005aa0;   } .tht { fill: #fff; font-size: 14px;  } .tf { fill: #323c46; overflow: visible; } .tf.pk { fill: #005aa0; font-weight: bold; } .tf.fk { font-weight: bold; } .ty { fill: #adb1b5; font-weight: normal; text-anchor: end; } .r { fill: transparent; stroke: #c3c3c3; stroke-width: 1; } .l { stroke: 1; } .i { fill: #c2c7ce; stroke: #c2c7ce; } .i.ix { fill: #afb3b6; stroke: #000; } .fa { fill: transparent; overflow: visible; } .fa .bg.hover { fill: #f7f7f7; } .c { cy: 12; r: 4; stroke: #d2d2dc; fill: #d2d2dc; } .hr { fill: transparent; stroke: #323c46; stroke-opacity: 0.035; stroke-width: 13; } .dc { stroke: #fa5a3c; fill: #fa5a3c; } .x { stroke: white; stroke-width: 1; } .hl .th { fill: #1b9bff; } .hl .tht {  } .fhl .bg { fill: #e7f4ff; } .fhls .bg {  } .r.hl { stroke: #1b9bff; } .dim { opacity: 0.25; }</style><g class="drawing-wrapper" transform="translate(144.5066666666666, 215.00000000000014) scale(1,1)"><g class="rs"><path d="M 255.7 -84.66999999999999 m -1, 0 a 1,1 0 1,0 2,0 a 1,1 0 1,0 -2,0 M 255.7 -84.66999999999999 m -0.5, 0 a 0.5,0.5 0 1,0 1,0 a 0.5,0.5 0 1,0 -1,0  M255.7 -84.66999999999999 L255.7 -84.66999999999999 267.7 -84.66999999999999 M 255.7 -78.66999999999999 m -1, 0 a 1,1 0 1,0 2,0 a 1,1 0 1,0 -2,0 M 255.7 -78.66999999999999 m -0.5, 0 a 0.5,0.5 0 1,0 1,0 a 0.5,0.5 0 1,0 -1,0  M255.7 -78.66999999999999 L255.7 -78.66999999999999 262.7 -84.66999999999999 255.7 -90.66999999999999 M 255.7 -90.66999999999999 m -1, 0 a 1,1 0 1,0 2,0 a 1,1 0 1,0 -2,0 M 255.7 -90.66999999999999 m -0.5, 0 a 0.5,0.5 0 1,0 1,0 a 0.5,0.5 0 1,0 -1,0  M267.7 -84.66999999999999 Q 302.57 -84.66999999999999, 337.44 -106.33 T 407.18 -128 M 419.18 -128 m -1, 0 a 1,1 0 1,0 2,0 a 1,1 0 1,0 -2,0 M 419.18 -128 m -0.5, 0 a 0.5,0.5 0 1,0 1,0 a 0.5,0.5 0 1,0 -1,0  M419.18 -128 L419.18 -128 407.18 -128 M413.18 -122 L413.18 -122 413.18 -134" id="h3883713910" class="r"></path><path d="M 255.7 -59.66999999999999 m -1, 0 a 1,1 0 1,0 2,0 a 1,1 0 1,0 -2,0 M 255.7 -59.66999999999999 m -0.5, 0 a 0.5,0.5 0 1,0 1,0 a 0.5,0.5 0 1,0 -1,0  M255.7 -59.66999999999999 L255.7 -59.66999999999999 267.7 -59.66999999999999 M 255.7 -53.66999999999999 m -1, 0 a 1,1 0 1,0 2,0 a 1,1 0 1,0 -2,0 M 255.7 -53.66999999999999 m -0.5, 0 a 0.5,0.5 0 1,0 1,0 a 0.5,0.5 0 1,0 -1,0  M255.7 -53.66999999999999 L255.7 -53.66999999999999 262.7 -59.66999999999999 255.7 -65.66999999999999 M 255.7 -65.66999999999999 m -1, 0 a 1,1 0 1,0 2,0 a 1,1 0 1,0 -2,0 M 255.7 -65.66999999999999 m -0.5, 0 a 0.5,0.5 0 1,0 1,0 a 0.5,0.5 0 1,0 -1,0  M267.7 -59.66999999999999 Q 307.15 -59.66999999999999, 346.6 44.5 T 425.5 148.66 M 437.5 148.66 m -1, 0 a 1,1 0 1,0 2,0 a 1,1 0 1,0 -2,0 M 437.5 148.66 m -0.5, 0 a 0.5,0.5 0 1,0 1,0 a 0.5,0.5 0 1,0 -1,0  M437.5 148.66 L437.5 148.66 425.5 148.66 M431.5 154.66 L431.5 154.66 431.5 142.66" id="h590229396" class="r"></path><path d="M 145 222.83 m -1, 0 a 1,1 0 1,0 2,0 a 1,1 0 1,0 -2,0 M 145 222.83 m -0.5, 0 a 0.5,0.5 0 1,0 1,0 a 0.5,0.5 0 1,0 -1,0  M145 222.83 L145 222.83 133 222.83 M 145 228.83 m -1, 0 a 1,1 0 1,0 2,0 a 1,1 0 1,0 -2,0 M 145 228.83 m -0.5, 0 a 0.5,0.5 0 1,0 1,0 a 0.5,0.5 0 1,0 -1,0  M145 228.83 L145 228.83 138 222.83 145 216.83 M 145 216.83 m -1, 0 a 1,1 0 1,0 2,0 a 1,1 0 1,0 -2,0 M 145 216.83 m -0.5, 0 a 0.5,0.5 0 1,0 1,0 a 0.5,0.5 0 1,0 -1,0  M133 222.83 C 72.32800000000002 222.83, 76.33000000000001 -109.66999999999999, 126.33000000000001 -109.66999999999999 M 138.33 -109.66999999999999 m -1, 0 a 1,1 0 1,0 2,0 a 1,1 0 1,0 -2,0 M 138.33 -109.66999999999999 m -0.5, 0 a 0.5,0.5 0 1,0 1,0 a 0.5,0.5 0 1,0 -1,0  M138.33 -109.66999999999999 L138.33 -109.66999999999999 126.33000000000001 -109.66999999999999 M132.33 -103.66999999999999 L132.33 -103.66999999999999 132.33 -115.66999999999999" id="h3785198165" class="r"></path><path d="M 145 247.83 m -1, 0 a 1,1 0 1,0 2,0 a 1,1 0 1,0 -2,0 M 145 247.83 m -0.5, 0 a 0.5,0.5 0 1,0 1,0 a 0.5,0.5 0 1,0 -1,0  M145 247.83 L145 247.83 133 247.83 M 145 253.83 m -1, 0 a 1,1 0 1,0 2,0 a 1,1 0 1,0 -2,0 M 145 253.83 m -0.5, 0 a 0.5,0.5 0 1,0 1,0 a 0.5,0.5 0 1,0 -1,0  M145 253.83 L145 253.83 138 247.83 145 241.83 M 145 241.83 m -1, 0 a 1,1 0 1,0 2,0 a 1,1 0 1,0 -2,0 M 145 241.83 m -0.5, 0 a 0.5,0.5 0 1,0 1,0 a 0.5,0.5 0 1,0 -1,0  M133 247.83 Q 110.81 247.83, 88.61 160.33 T 44.21 72.83 M 32.21 72.83 m -1, 0 a 1,1 0 1,0 2,0 a 1,1 0 1,0 -2,0 M 32.21 72.83 m -0.5, 0 a 0.5,0.5 0 1,0 1,0 a 0.5,0.5 0 1,0 -1,0  M32.21 72.83 L32.21 72.83 44.21 72.83 M38.21 78.83 L38.21 78.83 38.21 66.83" id="h4023665356" class="r"></path></g><g class="hrs"></g><g class="ts"><svg width="160.72" height="200" x="419.18" y="-185" id="h3676580549" class="t"><rect height="40" width="160.72" class="th"></rect><text x="13" y="25" class="tht">Patients</text><rect height="160" width="160.72" class="t-bg"></rect><text x="13" y="61" class="tf pk">id<tspan x="147.72" class="ty">int</tspan></text><path d="M7,14A2,2 0 0,1 5,12A2,2 0 0,1 7,10A2,2 0 0,1 9,12A2,2 0 0,1 7,14M12.65,10C11.83,7.67 9.61,6 7, 6A6, 6 0 0, 0 1, 12A6, 6 0 0, 0 7, 18C9.61, 18 11.83, 16.33 12.65, 14H17V18H21V14H23V10H12.65Z" class="i pk" transform="translate(115.046171875, 48) scale(0.65)"></path><text x="13" y="86" class="tf">first_name<tspan x="147.72" class="ty">TEXT</tspan></text><text x="13" y="111" class="tf">last_name<tspan x="147.72" class="ty">TEXT</tspan></text><text x="13" y="136" class="tf">dob<tspan x="147.72" class="ty">DATE</tspan></text><text x="13" y="161" class="tf">is_diabetic<tspan x="147.72" class="ty">BOOLEAN</tspan></text><text x="13" y="186" class="tf">complaint<tspan x="147.72" class="ty">TEXT</tspan></text></svg><svg width="132.69" height="200" x="437.5" y="91.66" id="h16875077" class="t"><rect height="40" width="132.69" class="th"></rect><text x="13" y="25" class="tht">Doctors</text><rect height="160" width="132.69" class="t-bg"></rect><text x="13" y="61" class="tf pk">id<tspan x="119.69" class="ty">int</tspan></text><path d="M7,14A2,2 0 0,1 5,12A2,2 0 0,1 7,10A2,2 0 0,1 9,12A2,2 0 0,1 7,14M12.65,10C11.83,7.67 9.61,6 7, 6A6, 6 0 0, 0 1, 12A6, 6 0 0, 0 7, 18C9.61, 18 11.83, 16.33 12.65, 14H17V18H21V14H23V10H12.65Z" class="i pk" transform="translate(87.016171875, 48) scale(0.65)"></path><text x="13" y="86" class="tf">prefix<tspan x="119.69" class="ty">TEXT</tspan></text><text x="13" y="111" class="tf">first_name<tspan x="119.69" class="ty">TEXT</tspan></text><text x="13" y="136" class="tf">last_name<tspan x="119.69" class="ty">TEXT</tspan></text><text x="13" y="161" class="tf">dr_type<tspan x="119.69" class="ty">TEXT</tspan></text><text x="13" y="186" class="tf">specialty<tspan x="119.69" class="ty">TEXT</tspan></text></svg><svg width="154.72" height="125" x="-122.51" y="15.83" id="h1794948770" class="t"><rect height="40" width="154.72" class="th"></rect><text x="13" y="25" class="tht">Diseases</text><rect height="85" width="154.72" class="t-bg"></rect><text x="13" y="61" class="tf pk">id<tspan x="141.72" class="ty">int</tspan></text><path d="M7,14A2,2 0 0,1 5,12A2,2 0 0,1 7,10A2,2 0 0,1 9,12A2,2 0 0,1 7,14M12.65,10C11.83,7.67 9.61,6 7, 6A6, 6 0 0, 0 1, 12A6, 6 0 0, 0 7, 18C9.61, 18 11.83, 16.33 12.65, 14H17V18H21V14H23V10H12.65Z" class="i pk" transform="translate(109.046171875, 48) scale(0.65)"></path><text x="13" y="86" class="tf">disease_name<tspan x="141.72" class="ty">TEXT</tspan></text><text x="13" y="111" class="tf">treatments<tspan x="141.72" class="ty">TEXT</tspan></text></svg><svg width="117.37" height="150" x="138.33" y="-166.67" id="h3280351983" class="t"><rect height="40" width="117.37" class="th"></rect><text x="13" y="25" class="tht">Visits</text><rect height="110" width="117.37" class="t-bg"></rect><text x="13" y="61" class="tf pk">id<tspan x="104.37" class="ty">int</tspan></text><path d="M7,14A2,2 0 0,1 5,12A2,2 0 0,1 7,10A2,2 0 0,1 9,12A2,2 0 0,1 7,14M12.65,10C11.83,7.67 9.61,6 7, 6A6, 6 0 0, 0 1, 12A6, 6 0 0, 0 7, 18C9.61, 18 11.83, 16.33 12.65, 14H17V18H21V14H23V10H12.65Z" class="i pk" transform="translate(71.696171875, 48) scale(0.65)"></path><text x="13" y="86" class="tf fk">patient_id<tspan x="104.37" class="ty">INT</tspan></text><text x="13" y="111" class="tf fk">doctor_id<tspan x="104.37" class="ty">INT</tspan></text><text x="13" y="136" class="tf">date<tspan x="104.37" class="ty">DATE</tspan></text></svg><svg width="127.36" height="150" x="145" y="140.83" id="h3621607512" class="t"><rect height="40" width="127.36" class="th"></rect><text x="13" y="25" class="tht">Diagnosis</text><rect height="110" width="127.36" class="t-bg"></rect><text x="13" y="61" class="tf pk">id<tspan x="114.36" class="ty">int</tspan></text><path d="M7,14A2,2 0 0,1 5,12A2,2 0 0,1 7,10A2,2 0 0,1 9,12A2,2 0 0,1 7,14M12.65,10C11.83,7.67 9.61,6 7, 6A6, 6 0 0, 0 1, 12A6, 6 0 0, 0 7, 18C9.61, 18 11.83, 16.33 12.65, 14H17V18H21V14H23V10H12.65Z" class="i pk" transform="translate(81.686171875, 48) scale(0.65)"></path><text x="13" y="86" class="tf fk">visit_id<tspan x="114.36" class="ty">INT</tspan></text><text x="13" y="111" class="tf fk">disease_id<tspan x="114.36" class="ty">INT</tspan></text><text x="13" y="136" class="tf">treatment<tspan x="114.36" class="ty">TEXT</tspan></text></svg></g></g><text class="qdbd-link" x="10" y="20">www.quickdatabasediagrams.com</text></svg>