<svg class="diagram-root" style="background: #f5f6f6" xmlns="http://www.w3.org/2000/svg" xmlns:xlink="http://www.w3.org/1999/xlink"><style>.diagram-root { font-family: "Helvetica Neue", sans-serif; font-size: 12px; } .t { overflow: visible; } .t-bg { y: 40; fill: #fff;   } .th { fill: #005aa0;   } .tht { fill: #fff; font-size: 14px;  } .tf { fill: #323c46; overflow: visible; } .tf.pk { fill: #005aa0; font-weight: bold; } .tf.fk { font-weight: bold; } .ty { fill: #adb1b5; font-weight: normal; text-anchor: end; } .r { fill: transparent; stroke: #c3c3c3; stroke-width: 1; } .l { stroke: 1; } .i { fill: #c2c7ce; stroke: #c2c7ce; } .i.ix { fill: #afb3b6; stroke: #000; } .fa { fill: transparent; overflow: visible; } .fa .bg.hover { fill: #f7f7f7; } .c { cy: 12; r: 4; stroke: #d2d2dc; fill: #d2d2dc; } .hr { fill: transparent; stroke: #323c46; stroke-opacity: 0.035; stroke-width: 13; } .dc { stroke: #fa5a3c; fill: #fa5a3c; } .x { stroke: white; stroke-width: 1; } .hl .th { fill: #1b9bff; } .hl .tht {  } .fhl .bg { fill: #e7f4ff; } .fhls .bg {  } .r.hl { stroke: #1b9bff; } .dim { opacity: 0.25; }</style><g class="drawing-wrapper" transform="translate(-99.25, -26.25) scale(1,1)"><g class="rs"><path d="M 927 321 m -1, 0 a 1,1 0 1,0 2,0 a 1,1 0 1,0 -2,0 M 927 321 m -0.5, 0 a 0.5,0.5 0 1,0 1,0 a 0.5,0.5 0 1,0 -1,0  M927 321 L927 321 915 321 M 927 327 m -1, 0 a 1,1 0 1,0 2,0 a 1,1 0 1,0 -2,0 M 927 327 m -0.5, 0 a 0.5,0.5 0 1,0 1,0 a 0.5,0.5 0 1,0 -1,0  M927 327 L927 327 920 321 927 315 M 927 315 m -1, 0 a 1,1 0 1,0 2,0 a 1,1 0 1,0 -2,0 M 927 315 m -0.5, 0 a 0.5,0.5 0 1,0 1,0 a 0.5,0.5 0 1,0 -1,0  M915 321 Q 850.2 321, 785.4 217.13 T 655.79 113.25 M 643.79 113.25 m -1, 0 a 1,1 0 1,0 2,0 a 1,1 0 1,0 -2,0 M 643.79 113.25 m -0.5, 0 a 0.5,0.5 0 1,0 1,0 a 0.5,0.5 0 1,0 -1,0  M643.79 113.25 L643.79 113.25 655.79 113.25 M649.79 119.25 L649.79 119.25 649.79 107.25" id="h1752145770" class="r"></path><path d="M 501.25 524.5 m -1, 0 a 1,1 0 1,0 2,0 a 1,1 0 1,0 -2,0 M 501.25 524.5 m -0.5, 0 a 0.5,0.5 0 1,0 1,0 a 0.5,0.5 0 1,0 -1,0  M501.25 524.5 L501.25 524.5 489.25 524.5 M 501.25 530.5 m -1, 0 a 1,1 0 1,0 2,0 a 1,1 0 1,0 -2,0 M 501.25 530.5 m -0.5, 0 a 0.5,0.5 0 1,0 1,0 a 0.5,0.5 0 1,0 -1,0  M501.25 530.5 L501.25 530.5 494.25 524.5 501.25 518.5 M 501.25 518.5 m -1, 0 a 1,1 0 1,0 2,0 a 1,1 0 1,0 -2,0 M 501.25 518.5 m -0.5, 0 a 0.5,0.5 0 1,0 1,0 a 0.5,0.5 0 1,0 -1,0  M489.25 524.5 Q 434.13 524.5, 379 443.25 T 268.74 362 M 256.74 362 m -1, 0 a 1,1 0 1,0 2,0 a 1,1 0 1,0 -2,0 M 256.74 362 m -0.5, 0 a 0.5,0.5 0 1,0 1,0 a 0.5,0.5 0 1,0 -1,0  M256.74 362 L256.74 362 268.74 362 M262.74 368 L262.74 368 262.74 356" id="h741668167" class="r"></path><path d="M 645.96 549.5 m -1, 0 a 1,1 0 1,0 2,0 a 1,1 0 1,0 -2,0 M 645.96 549.5 m -0.5, 0 a 0.5,0.5 0 1,0 1,0 a 0.5,0.5 0 1,0 -1,0  M645.96 549.5 L645.96 549.5 657.96 549.5 M 645.96 555.5 m -1, 0 a 1,1 0 1,0 2,0 a 1,1 0 1,0 -2,0 M 645.96 555.5 m -0.5, 0 a 0.5,0.5 0 1,0 1,0 a 0.5,0.5 0 1,0 -1,0  M645.96 555.5 L645.96 555.5 652.96 549.5 645.96 543.5 M 645.96 543.5 m -1, 0 a 1,1 0 1,0 2,0 a 1,1 0 1,0 -2,0 M 645.96 543.5 m -0.5, 0 a 0.5,0.5 0 1,0 1,0 a 0.5,0.5 0 1,0 -1,0  M657.96 549.5 C 707.96 549.5, 709.2620000000001 113.25, 655.79 113.25 M 643.79 113.25 m -1, 0 a 1,1 0 1,0 2,0 a 1,1 0 1,0 -2,0 M 643.79 113.25 m -0.5, 0 a 0.5,0.5 0 1,0 1,0 a 0.5,0.5 0 1,0 -1,0  M643.79 113.25 L643.79 113.25 655.79 113.25 M649.79 119.25 L649.79 119.25 649.79 107.25" id="h4125972419" class="r"></path><path d="M 501.25 574.5 m -1, 0 a 1,1 0 1,0 2,0 a 1,1 0 1,0 -2,0 M 501.25 574.5 m -0.5, 0 a 0.5,0.5 0 1,0 1,0 a 0.5,0.5 0 1,0 -1,0  M501.25 574.5 L501.25 574.5 489.25 574.5 M 501.25 580.5 m -1, 0 a 1,1 0 1,0 2,0 a 1,1 0 1,0 -2,0 M 501.25 580.5 m -0.5, 0 a 0.5,0.5 0 1,0 1,0 a 0.5,0.5 0 1,0 -1,0  M501.25 580.5 L501.25 580.5 494.25 574.5 501.25 568.5 M 501.25 568.5 m -1, 0 a 1,1 0 1,0 2,0 a 1,1 0 1,0 -2,0 M 501.25 568.5 m -0.5, 0 a 0.5,0.5 0 1,0 1,0 a 0.5,0.5 0 1,0 -1,0  M489.25 574.5 Q 433.74 574.5, 378.22 585.75 T 267.19 597 M 255.19 597 m -1, 0 a 1,1 0 1,0 2,0 a 1,1 0 1,0 -2,0 M 255.19 597 m -0.5, 0 a 0.5,0.5 0 1,0 1,0 a 0.5,0.5 0 1,0 -1,0  M255.19 597 L255.19 597 267.19 597 M261.19 603 L261.19 603 261.19 591" id="h3694993406" class="r"></path><path d="M 501.25 599.5 m -1, 0 a 1,1 0 1,0 2,0 a 1,1 0 1,0 -2,0 M 501.25 599.5 m -0.5, 0 a 0.5,0.5 0 1,0 1,0 a 0.5,0.5 0 1,0 -1,0  M501.25 599.5 L501.25 599.5 489.25 599.5 M 501.25 605.5 m -1, 0 a 1,1 0 1,0 2,0 a 1,1 0 1,0 -2,0 M 501.25 605.5 m -0.5, 0 a 0.5,0.5 0 1,0 1,0 a 0.5,0.5 0 1,0 -1,0  M501.25 605.5 L501.25 605.5 494.25 599.5 501.25 593.5 M 501.25 593.5 m -1, 0 a 1,1 0 1,0 2,0 a 1,1 0 1,0 -2,0 M 501.25 593.5 m -0.5, 0 a 0.5,0.5 0 1,0 1,0 a 0.5,0.5 0 1,0 -1,0  M489.25 599.5 Q 433.74 599.5, 378.22 598.25 T 267.19 597 M 255.19 597 m -1, 0 a 1,1 0 1,0 2,0 a 1,1 0 1,0 -2,0 M 255.19 597 m -0.5, 0 a 0.5,0.5 0 1,0 1,0 a 0.5,0.5 0 1,0 -1,0  M255.19 597 L255.19 597 267.19 597 M261.19 603 L261.19 603 261.19 591" id="h2978088511" class="r"></path><path d="M 501.25 624.5 m -1, 0 a 1,1 0 1,0 2,0 a 1,1 0 1,0 -2,0 M 501.25 624.5 m -0.5, 0 a 0.5,0.5 0 1,0 1,0 a 0.5,0.5 0 1,0 -1,0  M501.25 624.5 L501.25 624.5 489.25 624.5 M 501.25 630.5 m -1, 0 a 1,1 0 1,0 2,0 a 1,1 0 1,0 -2,0 M 501.25 630.5 m -0.5, 0 a 0.5,0.5 0 1,0 1,0 a 0.5,0.5 0 1,0 -1,0  M501.25 630.5 L501.25 630.5 494.25 624.5 501.25 618.5 M 501.25 618.5 m -1, 0 a 1,1 0 1,0 2,0 a 1,1 0 1,0 -2,0 M 501.25 618.5 m -0.5, 0 a 0.5,0.5 0 1,0 1,0 a 0.5,0.5 0 1,0 -1,0  M489.25 624.5 Q 433.74 624.5, 378.22 610.75 T 267.19 597 M 255.19 597 m -1, 0 a 1,1 0 1,0 2,0 a 1,1 0 1,0 -2,0 M 255.19 597 m -0.5, 0 a 0.5,0.5 0 1,0 1,0 a 0.5,0.5 0 1,0 -1,0  M255.19 597 L255.19 597 267.19 597 M261.19 603 L261.19 603 261.19 591" id="h1684380067" class="r"></path><path d="M 1072.78 628.25 m -1, 0 a 1,1 0 1,0 2,0 a 1,1 0 1,0 -2,0 M 1072.78 628.25 m -0.5, 0 a 0.5,0.5 0 1,0 1,0 a 0.5,0.5 0 1,0 -1,0  M1072.78 628.25 L1072.78 628.25 1084.78 628.25 M 1072.78 634.25 m -1, 0 a 1,1 0 1,0 2,0 a 1,1 0 1,0 -2,0 M 1072.78 634.25 m -0.5, 0 a 0.5,0.5 0 1,0 1,0 a 0.5,0.5 0 1,0 -1,0  M1072.78 634.25 L1072.78 634.25 1079.78 628.25 1072.78 622.25 M 1072.78 622.25 m -1, 0 a 1,1 0 1,0 2,0 a 1,1 0 1,0 -2,0 M 1072.78 622.25 m -0.5, 0 a 0.5,0.5 0 1,0 1,0 a 0.5,0.5 0 1,0 -1,0  M1084.78 628.25 C 1144.796 628.25, 1141.04 221, 1091.04 221 M 1079.04 221 m -1, 0 a 1,1 0 1,0 2,0 a 1,1 0 1,0 -2,0 M 1079.04 221 m -0.5, 0 a 0.5,0.5 0 1,0 1,0 a 0.5,0.5 0 1,0 -1,0  M1079.04 221 L1079.04 221 1091.04 221 M1085.04 227 L1085.04 227 1085.04 215" id="h2561147591" class="r"></path><path d="M 958.75 653.25 m -1, 0 a 1,1 0 1,0 2,0 a 1,1 0 1,0 -2,0 M 958.75 653.25 m -0.5, 0 a 0.5,0.5 0 1,0 1,0 a 0.5,0.5 0 1,0 -1,0  M958.75 653.25 L958.75 653.25 946.75 653.25 M 958.75 659.25 m -1, 0 a 1,1 0 1,0 2,0 a 1,1 0 1,0 -2,0 M 958.75 659.25 m -0.5, 0 a 0.5,0.5 0 1,0 1,0 a 0.5,0.5 0 1,0 -1,0  M958.75 659.25 L958.75 659.25 951.75 653.25 958.75 647.25 M 958.75 647.25 m -1, 0 a 1,1 0 1,0 2,0 a 1,1 0 1,0 -2,0 M 958.75 647.25 m -0.5, 0 a 0.5,0.5 0 1,0 1,0 a 0.5,0.5 0 1,0 -1,0  M946.75 653.25 Q 874.56 653.25, 802.36 538.88 T 657.96 424.5 M 645.96 424.5 m -1, 0 a 1,1 0 1,0 2,0 a 1,1 0 1,0 -2,0 M 645.96 424.5 m -0.5, 0 a 0.5,0.5 0 1,0 1,0 a 0.5,0.5 0 1,0 -1,0  M645.96 424.5 L645.96 424.5 657.96 424.5 M651.96 430.5 L651.96 430.5 651.96 418.5" id="h883084757" class="r"></path><path d="M 235.27 140.75 m -1, 0 a 1,1 0 1,0 2,0 a 1,1 0 1,0 -2,0 M 235.27 140.75 m -0.5, 0 a 0.5,0.5 0 1,0 1,0 a 0.5,0.5 0 1,0 -1,0  M235.27 140.75 L235.27 140.75 247.27 140.75 M 235.27 146.75 m -1, 0 a 1,1 0 1,0 2,0 a 1,1 0 1,0 -2,0 M 235.27 146.75 m -0.5, 0 a 0.5,0.5 0 1,0 1,0 a 0.5,0.5 0 1,0 -1,0  M235.27 146.75 L235.27 146.75 242.27 140.75 235.27 134.75 M 235.27 134.75 m -1, 0 a 1,1 0 1,0 2,0 a 1,1 0 1,0 -2,0 M 235.27 134.75 m -0.5, 0 a 0.5,0.5 0 1,0 1,0 a 0.5,0.5 0 1,0 -1,0  M247.27 140.75 Q 308.39 140.75, 369.51 127 T 491.75 113.25 M 503.75 113.25 m -1, 0 a 1,1 0 1,0 2,0 a 1,1 0 1,0 -2,0 M 503.75 113.25 m -0.5, 0 a 0.5,0.5 0 1,0 1,0 a 0.5,0.5 0 1,0 -1,0  M503.75 113.25 L503.75 113.25 491.75 113.25 M497.75 119.25 L497.75 119.25 497.75 107.25" id="h3857304036" class="r"></path><path d="M 235.27 165.75 m -1, 0 a 1,1 0 1,0 2,0 a 1,1 0 1,0 -2,0 M 235.27 165.75 m -0.5, 0 a 0.5,0.5 0 1,0 1,0 a 0.5,0.5 0 1,0 -1,0  M235.27 165.75 L235.27 165.75 247.27 165.75 M 235.27 171.75 m -1, 0 a 1,1 0 1,0 2,0 a 1,1 0 1,0 -2,0 M 235.27 171.75 m -0.5, 0 a 0.5,0.5 0 1,0 1,0 a 0.5,0.5 0 1,0 -1,0  M235.27 171.75 L235.27 171.75 242.27 165.75 235.27 159.75 M 235.27 159.75 m -1, 0 a 1,1 0 1,0 2,0 a 1,1 0 1,0 -2,0 M 235.27 159.75 m -0.5, 0 a 0.5,0.5 0 1,0 1,0 a 0.5,0.5 0 1,0 -1,0  M247.27 165.75 Q 307.77 165.75, 368.26 295.13 T 489.25 424.5 M 501.25 424.5 m -1, 0 a 1,1 0 1,0 2,0 a 1,1 0 1,0 -2,0 M 501.25 424.5 m -0.5, 0 a 0.5,0.5 0 1,0 1,0 a 0.5,0.5 0 1,0 -1,0  M501.25 424.5 L501.25 424.5 489.25 424.5 M495.25 430.5 L495.25 430.5 495.25 418.5" id="h3228109841" class="r"></path></g><g class="hrs"></g><g class="ts"><svg width="132.69" height="125" x="122.5" y="540" id="h332749422" class="t"><rect height="40" width="132.69" class="th"></rect><text x="13" y="25" class="tht">Referees</text><rect height="85" width="132.69" class="t-bg"></rect><text x="13" y="61" class="tf pk">id<tspan x="119.69" class="ty">int</tspan></text><path d="M7,14A2,2 0 0,1 5,12A2,2 0 0,1 7,10A2,2 0 0,1 9,12A2,2 0 0,1 7,14M12.65,10C11.83,7.67 9.61,6 7, 6A6, 6 0 0, 0 1, 12A6, 6 0 0, 0 7, 18C9.61, 18 11.83, 16.33 12.65, 14H17V18H21V14H23V10H12.65Z" class="i pk" transform="translate(87.016171875, 48) scale(0.65)"></path><text x="13" y="86" class="tf">first_name<tspan x="119.69" class="ty">TEXT</tspan></text><text x="13" y="111" class="tf">last_name<tspan x="119.69" class="ty">TEXT</tspan></text></svg><svg width="144.71" height="300" x="501.25" y="367.5" id="h3829905542" class="t"><rect height="40" width="144.71" class="th"></rect><text x="13" y="25" class="tht">Matches</text><rect height="260" width="144.71" class="t-bg"></rect><text x="13" y="61" class="tf pk">id<tspan x="131.71" class="ty">int</tspan></text><path d="M7,14A2,2 0 0,1 5,12A2,2 0 0,1 7,10A2,2 0 0,1 9,12A2,2 0 0,1 7,14M12.65,10C11.83,7.67 9.61,6 7, 6A6, 6 0 0, 0 1, 12A6, 6 0 0, 0 7, 18C9.61, 18 11.83, 16.33 12.65, 14H17V18H21V14H23V10H12.65Z" class="i pk" transform="translate(99.03617187500001, 48) scale(0.65)"></path><text x="13" y="86" class="tf">date<tspan x="131.71" class="ty">DATE</tspan></text><text x="13" y="111" class="tf">location<tspan x="131.71" class="ty">TEXT</tspan></text><text x="13" y="136" class="tf">start_time<tspan x="131.71" class="ty">TIME</tspan></text><text x="13" y="161" class="tf fk">season_id<tspan x="131.71" class="ty">INT</tspan></text><text x="13" y="186" class="tf fk">home_team_id<tspan x="131.71" class="ty">INT</tspan></text><text x="13" y="211" class="tf fk">away_team_id<tspan x="131.71" class="ty">INT</tspan></text><text x="13" y="236" class="tf fk">head_ref_id<tspan x="131.71" class="ty">INT</tspan></text><text x="13" y="261" class="tf fk">assist_ref_1<tspan x="131.71" class="ty">INT</tspan></text><text x="13" y="286" class="tf">assist_ref_2<tspan x="131.71" class="ty">INT</tspan></text></svg><svg width="130.49" height="125" x="126.25" y="305" id="h447324019" class="t"><rect height="40" width="130.49" class="th"></rect><text x="13" y="25" class="tht">Seasons</text><rect height="85" width="130.49" class="t-bg"></rect><text x="13" y="61" class="tf pk">id<tspan x="117.49000000000001" class="ty">int</tspan></text><path d="M7,14A2,2 0 0,1 5,12A2,2 0 0,1 7,10A2,2 0 0,1 9,12A2,2 0 0,1 7,14M12.65,10C11.83,7.67 9.61,6 7, 6A6, 6 0 0, 0 1, 12A6, 6 0 0, 0 7, 18C9.61, 18 11.83, 16.33 12.65, 14H17V18H21V14H23V10H12.65Z" class="i pk" transform="translate(84.81617187500001, 48) scale(0.65)"></path><text x="13" y="86" class="tf">start_date<tspan x="117.49000000000001" class="ty">DATE</tspan></text><text x="13" y="111" class="tf">end_date<tspan x="117.49000000000001" class="ty">DATE</tspan></text></svg><svg width="114.02" height="150" x="121.25" y="58.75" id="h1488401382" class="t"><rect height="40" width="114.02" class="th"></rect><text x="13" y="25" class="tht">Results</text><rect height="110" width="114.02" class="t-bg"></rect><text x="13" y="61" class="tf pk">id<tspan x="101.02" class="ty">int</tspan></text><path d="M7,14A2,2 0 0,1 5,12A2,2 0 0,1 7,10A2,2 0 0,1 9,12A2,2 0 0,1 7,14M12.65,10C11.83,7.67 9.61,6 7, 6A6, 6 0 0, 0 1, 12A6, 6 0 0, 0 7, 18C9.61, 18 11.83, 16.33 12.65, 14H17V18H21V14H23V10H12.65Z" class="i pk" transform="translate(68.346171875, 48) scale(0.65)"></path><text x="13" y="86" class="tf fk">team_id<tspan x="101.02" class="ty">INT</tspan></text><text x="13" y="111" class="tf fk">match_id<tspan x="101.02" class="ty">INT</tspan></text><text x="13" y="136" class="tf">result<tspan x="101.02" class="ty">TEXT</tspan></text></svg><svg width="140.04" height="125" x="503.75" y="56.25" id="h3010508784" class="t"><rect height="40" width="140.04" class="th"></rect><text x="13" y="25" class="tht">Teams</text><rect height="85" width="140.04" class="t-bg"></rect><text x="13" y="61" class="tf pk">id<tspan x="127.03999999999999" class="ty">int</tspan></text><path d="M7,14A2,2 0 0,1 5,12A2,2 0 0,1 7,10A2,2 0 0,1 9,12A2,2 0 0,1 7,14M12.65,10C11.83,7.67 9.61,6 7, 6A6, 6 0 0, 0 1, 12A6, 6 0 0, 0 7, 18C9.61, 18 11.83, 16.33 12.65, 14H17V18H21V14H23V10H12.65Z" class="i pk" transform="translate(94.36617187499999, 48) scale(0.65)"></path><text x="13" y="86" class="tf">team_name<tspan x="127.03999999999999" class="ty">TEXT</tspan></text><text x="13" y="111" class="tf">city<tspan x="127.03999999999999" class="ty">TEXT</tspan></text></svg><svg width="114.03" height="125" x="958.75" y="546.25" id="h2207534861" class="t"><rect height="40" width="114.03" class="th"></rect><text x="13" y="25" class="tht">Goals</text><rect height="85" width="114.03" class="t-bg"></rect><text x="13" y="61" class="tf pk">id<tspan x="101.03" class="ty">int</tspan></text><path d="M7,14A2,2 0 0,1 5,12A2,2 0 0,1 7,10A2,2 0 0,1 9,12A2,2 0 0,1 7,14M12.65,10C11.83,7.67 9.61,6 7, 6A6, 6 0 0, 0 1, 12A6, 6 0 0, 0 7, 18C9.61, 18 11.83, 16.33 12.65, 14H17V18H21V14H23V10H12.65Z" class="i pk" transform="translate(68.356171875, 48) scale(0.65)"></path><text x="13" y="86" class="tf fk">player_id<tspan x="101.03" class="ty">INT</tspan></text><text x="13" y="111" class="tf fk">match_id<tspan x="101.03" class="ty">INT</tspan></text></svg><svg width="152.04" height="175" x="927" y="164" id="h4103274130" class="t"><rect height="40" width="152.04" class="th"></rect><text x="13" y="25" class="tht">Players</text><rect height="135" width="152.04" class="t-bg"></rect><text x="13" y="61" class="tf pk">id<tspan x="139.04" class="ty">int</tspan></text><path d="M7,14A2,2 0 0,1 5,12A2,2 0 0,1 7,10A2,2 0 0,1 9,12A2,2 0 0,1 7,14M12.65,10C11.83,7.67 9.61,6 7, 6A6, 6 0 0, 0 1, 12A6, 6 0 0, 0 7, 18C9.61, 18 11.83, 16.33 12.65, 14H17V18H21V14H23V10H12.65Z" class="i pk" transform="translate(106.36617187499999, 48) scale(0.65)"></path><text x="13" y="86" class="tf">first_name<tspan x="139.04" class="ty">TEXT</tspan></text><text x="13" y="111" class="tf">last_name<tspan x="139.04" class="ty">TEXT</tspan></text><text x="13" y="136" class="tf">country<tspan x="139.04" class="ty">TEXT</tspan></text><text x="13" y="161" class="tf fk">current_team_id<tspan x="139.04" class="ty">INT</tspan></text></svg></g></g><text class="qdbd-link" x="10" y="20">www.quickdatabasediagrams.com</text></svg>